# xmcd
#
# Track frame offsets:
#	150
#	11574
#	23061
#	34025
#	45666
#	55416
#	65985
#	76258
#	90435
#	103382
#	116085
#	129299
#	141810
#	154227
#	167930
#	179023
#	192383
#	202814
#	212631
#	223291
#	235261
#	244119
#	254075
#	265751
#	279477
#
# Disc length: 3878 seconds
#
# Revision: 1
# Processed by: cddbd v1.5.2PL0 Copyright (c) Steve Scherf et al.
# Submitted via: audiograbber 1.83.01
#
DISCID=790f2419
DTITLE=Various Artist - Goin' To A Happening
DYEAR=2011
DGENRE=Soul
TTITLE0=Tommy Neal - Goin' To A Happening
TTITLE1=Stanley Mitchell - Get It Babe
TTITLE2=Betty Boo - Stop That Boy
TTITLE3=Jimmy 'Soul' Clark - Sweet Darlin'
TTITLE4=Mighty Lovers - (She Keeps) Driving Me Out Of My Mind
TTITLE5=Eric and The Vikings - Hurting
TTITLE6=Innocent Bystanders - Frantic Escape
TTITLE7=Richard 'Popcorn' Wylie - Hanky Panky
TTITLE8=Luther Ingram - If It's All The Same To You Babe
TTITLE9=Richard 'Popcorn' Wylie - Rosemary What Happened
TTITLE10=Tony Hestor - Spaceland
TTITLE11=Mighty Lovers - Mighty Lover
TTITLE12=Margaret Little - Love Finds A Way
TTITLE13=The People's Choice - Savin' My Lovin' For You
TTITLE14=The Third Party - Such A Soul Says
TTITLE15=Betty Boo - Say It Isn't So
TTITLE16=Jimmy 'Soul' Clark - (Somebody) Stop That Girl
TTITLE17=Stanley Mitchell - Quit Twistin' My Arm
TTITLE18=Margaret Little - I Need Some Loving
TTITLE19=Luther Ingram - Exus Trek
TTITLE20=Betty Boo - Spellbound
TTITLE21=Tony Hestor - Down In The Dumps
TTITLE22=Detroit Executives - Cool Off
TTITLE23=Jimmy 'Soul' Clark - I'll Be Your Winner
TTITLE24=Tony Hestor - Just Can't Leave You
EXTD=
EXTT0=
EXTT1=
EXTT2=
EXTT3=
EXTT4=
EXTT5=
EXTT6=
EXTT7=
EXTT8=
EXTT9=
EXTT10=
EXTT11=
EXTT12=
EXTT13=
EXTT14=
EXTT15=
EXTT16=
EXTT17=
EXTT18=
EXTT19=
EXTT20=
EXTT21=
EXTT22=
EXTT23=
EXTT24=
PLAYORDER=
